<svg version="1.1" xmlns="http://www.w3.org/2000/svg" xmlns:xlink="http://www.w3.org/1999/xlink" width="94.89074" height="76.90068" viewBox="0,0,94.89074,76.90068"><g transform="translate(-192.55463,-141.54966)"><g data-paper-data="{&quot;isPaintingLayer&quot;:true}" fill="none" fill-rule="nonzero" stroke="none" stroke-width="0" stroke-linecap="butt" stroke-linejoin="miter" stroke-miterlimit="10" stroke-dasharray="" stroke-dashoffset="0" font-family="none" font-weight="none" font-size="none" text-anchor="none" style="mix-blend-mode: normal"><path d="M278.80066,186.45195l-11.05415,-28.74079c0,0 4.14194,-0.4164 5.99845,0.37991c2.31576,0.99331 1.46267,1.60486 2.29217,2.86724c0.8295,1.26238 0.66883,1.06829 0.74315,1.75206c0.19531,1.79679 -0.2622,3.01575 0.50045,4.88043c0.76265,1.86468 2.0719,1.84132 2.91159,3.46206c0.8001,1.54431 0.49167,2.75629 0.94473,4.44071c0.45306,1.68442 2.33872,3.69775 1.99543,6.49029c-0.39281,3.19535 -4.33181,4.46807 -4.33181,4.46807z" data-paper-data="{&quot;origPos&quot;:null}" fill="#c69b6e" stroke="none"/><path d="M274.72444,187.9028l-8.15243,-29.70803c0,0 4.67547,-0.39375 6.18326,1.88674c1.97112,2.98128 0.94468,4.84694 1.69281,7.99291c0.74813,3.14597 0.27732,1.70085 0.84236,2.66769c0.7346,1.25699 2.04212,1.72661 2.58468,3.07764c0.51812,1.29015 -0.19718,2.27304 0.1975,3.66107c0.39468,1.38803 1.96238,2.50127 2.21698,4.83022c0.22881,2.09308 -0.98573,3.82395 -0.98573,3.82395c0,0 -0.87376,0.65125 -1.6099,0.93543c-1.05104,0.40574 -2.96952,0.83238 -2.96952,0.83238z" data-paper-data="{&quot;origPos&quot;:null}" fill="#a67c52" stroke="none"/><path d="M264.01573,164.04427l-10.45538,-21.60165c0,0 1.09898,-0.86747 3.08655,-0.89206c1.43797,-0.01779 2.57192,0.228 3.68412,0.75388c1.33172,0.62967 2.72025,2.70292 3.93072,4.60981c1.4139,2.22739 1.73752,3.62877 2.79389,5.98375c1.05638,2.35497 0.96572,1.74931 1.23007,2.98688c0.2926,1.36983 0.19705,3.69427 0.19705,3.69427c0,0 0.25417,1.19021 0.59992,1.84025c0.36273,0.682 0.90312,0.98817 1.04613,1.79625c0.18532,1.04707 0.35548,1.70207 0.41221,2.7639c0.06275,1.17458 -0.35448,1.84869 0.06144,2.94896c0.28276,0.74803 1.6587,1.0358 1.93554,2.06439c0.5701,2.11829 -0.28871,3.506 0.15299,5.6958c0.44169,2.1898 1.30907,2.15999 1.73422,3.66041c0.39029,1.37741 0.25189,2.25749 0.35525,3.71369c0.10336,1.4562 1.72696,3.42678 0.29707,5.4763c-1.0222,1.46517 -4.33285,1.63183 -4.33285,1.63183z" data-paper-data="{&quot;origPos&quot;:null}" fill="#c69c6c" stroke="none"/><path d="M241.94692,147.83151c0,0 -0.07862,-1.27516 0.83247,-1.68203c1.47359,-0.65806 4.08268,0.47791 4.08268,0.47791c0,0 2.3907,0.23641 3.12432,-0.71558c0.79978,-1.03782 3.10564,-3.68152 4.23736,-3.9032c2.11967,-0.02872 3.90959,3.13831 3.90959,3.13831c0,0 2.95878,3.55794 4.08263,6.51977c0.96877,2.55314 1.05946,6.22388 1.05946,6.22388c0,0 0.23371,1.09458 0.54437,1.87098c0.51575,1.28896 2.44015,3.07343 2.46842,4.31129c0.07956,3.48333 -0.18068,2.37793 0.21958,4.34837c0.40026,1.97044 0.82326,1.56975 1.04696,2.57448c0.37401,1.67981 0.03198,3.02129 0.60304,4.83729c0.57106,1.816 2.63336,5.05913 3.59869,8.52464c0.55216,1.98225 0.17124,4.9016 0.17124,4.9016l-8.05018,-1.86965z" data-paper-data="{&quot;origPos&quot;:null}" fill="#a67c52" stroke="none"/><path d="M229.31607,161.38025l-1.50267,-14.09404l21.81467,0.72543z" data-paper-data="{&quot;origPos&quot;:null}" fill="#68c0d8" stroke="none"/><path d="M228.54869,150.52299c0,0 3.62259,2.9203 5.51977,3.55981c0.32214,0.10859 1.38908,-0.28501 1.38908,-0.28501c0,0 0.15965,-0.37158 0.04074,-0.63152c-0.10628,-0.23231 -0.61776,-0.62983 -0.61776,-0.62983c0,0 -2.73578,-1.36604 -1.9447,-2.40034c0.75549,-0.93955 6.7239,2.35731 7.59831,2.4098c1.09592,0.06579 1.53535,0.15541 2.06487,-0.26394c0.52952,-0.41935 -0.27177,-1.15611 -0.27177,-1.15611c0,0 -4.07514,-1.59483 -2.82432,-2.14557c1.25082,-0.55075 7.8753,0.26727 8.68769,-0.19274c0.28767,-0.16289 0.17883,-0.76097 0.17883,-0.76097c0,0 1.96936,-0.01289 3.18563,0.11153c1.14237,0.11686 2.85808,0.5067 2.85808,0.5067c0,0 2.52969,1.70836 3.43714,5.33881c0.96505,3.86088 1.79817,9.69958 1.79817,9.69958l1.9587,14.39328l-27.11347,-4.84368z" data-paper-data="{&quot;origPos&quot;:null}" fill="#7fcfea" stroke="none"/><path d="M211.99905,204.108c0,0 -15.72483,-1.75305 -19.24635,-7.17049c-2.02904,-3.12144 12.19933,-6.55047 12.19933,-6.55047l19.83386,4.81591l13.40066,-1.37283c0,0 -5.53226,-27.9463 -5.3343,-28.45176c0.20053,-0.512 0.74628,-0.66177 0.77796,-0.83983c0.03167,-0.17807 -0.24251,-5.78996 0.65621,-5.69558c0.85728,0.08983 1.78329,8.21955 1.90593,8.56311c0.1716,0.48068 0.66345,1.02042 1.28484,0.92067c0.62139,-0.09975 0.73873,-0.57046 0.85858,-1.24464c0.11984,-0.67418 -0.40264,-8.80956 0.95737,-8.97058c0.70632,-0.08363 0.92288,0.80372 1.13271,1.48331c0.62948,2.03877 0.87064,6.79905 1.16165,7.59982c0.30848,0.84887 0.72933,1.30226 1.16446,1.23334c0.50506,-0.07998 0.70528,-0.57238 0.91469,-1.30916c0.20942,-0.73677 0.4553,-2.36649 0.55859,-3.72335c0.16627,-2.18419 -0.06321,-5.04453 1.21046,-5.16434c1.89915,-0.20305 2.07766,7.11401 2.45101,8.02424c0.35336,0.86152 0.29325,1.77293 1.2053,1.58521c0.63669,-0.13105 0.58396,-0.95236 0.75771,-1.80623c0.17376,-0.85387 -0.28575,-8.2827 1.21304,-8.64196c1.15968,-0.27797 1.45567,6.44199 2.09527,8.11974c0.40146,1.05308 0.87269,1.84787 1.4348,1.73881c0.50922,-0.09879 0.90858,-0.4691 1.10306,-1.92478c0.29144,-2.18141 -0.74893,-7.21667 0.66624,-7.20127c1.81426,0.01974 3.54446,9.32386 3.54446,9.32386l2.91785,15.33454c0,0 1.26695,-3.88544 2.22656,-3.43079c1.26875,0.6011 -0.64917,2.62846 -0.64917,2.62846c0,0 2.48436,-1.02103 2.62949,-0.41895c0.28942,0.87522 -2.44137,2.17422 -2.44137,2.17422c0,0 3.64568,0.3038 3.5591,0.94318c-0.18156,1.34081 -4.68921,0.17375 -4.5397,1.22385c0.07758,0.54494 2.87623,1.19546 4.68406,1.91066c1.80782,0.71519 3.8024,0.90095 4.05618,1.99741c0.28195,1.21821 -2.62151,1.75319 -2.62151,1.75319c0,0 2.05571,0.99275 3.42832,1.19995c1.4658,0.22127 14.71717,1.40025 14.27831,5.91162c-0.40352,4.14801 -25.63928,9.24331 -25.63928,9.24331c0,0 10.9306,1.86066 11.12456,4.10614c0.19447,2.25143 -12.84356,4.34786 -12.84356,4.34786c0,0 -9.29311,0.82614 -15.2412,1.19572c-5.01713,0.31173 -7.83405,0.59077 -12.85577,0.71587c-5.07742,0.12649 -32.96502,1.42495 -35.27257,-5.97108c-1.81491,-5.81706 15.29219,-8.20586 15.29219,-8.20586z" data-paper-data="{&quot;origPos&quot;:null}" fill="#a1defa" stroke="none"/><path d="M227.58886,176.81642l-5.06764,-31.71159c0,0 1.21597,-1.49032 2.07686,-1.56389c0.99832,-0.08531 2.35861,0.90063 2.35861,0.90063c0,0 0.74868,1.45123 1.04215,2.72501c0.46688,2.02645 0.50398,3.62028 1.36213,5.70033c0.85814,2.08005 2.42651,1.97334 3.05761,3.4818c0.75134,1.79586 0.53653,5.08873 0.53653,5.08873c0,0 -0.32992,2.27466 0.05357,3.75805c0.38349,1.4834 2.45749,6.80191 2.45749,6.80191c0,0 1.49923,5.55143 2.293,9.1378c0.75469,3.40985 1.67473,8.78914 1.67473,8.78914c0,0 0.22512,1.10072 0.17021,1.70574c-0.06815,0.751 -0.53736,2.33889 -0.53736,2.33889z" data-paper-data="{&quot;origPos&quot;:null}" fill="#bc9868" stroke="none"/><path d="M217.09087,156.12213c0,0 0.28258,-2.00384 0.83489,-3.15373c1.42136,-2.95922 4.67837,-8.03859 4.67837,-8.03859l1.82394,3.10897c0,0 2.26719,5.09196 2.12805,9.58906c-0.0936,3.02539 -0.24488,2.72377 0.12201,5.72828c0.2142,1.75418 1.1133,3.92512 1.1133,3.92512c0,0 1.82713,3.97431 2.58091,6.19969c0.64272,1.89749 5.15658,16.59328 5.15658,16.59328l-11.90679,-0.47292l-3.215,-21.99666z" data-paper-data="{&quot;origPos&quot;:null}" fill="#8c6238" stroke="none"/><path d="M213.91405,156.57904c0,0 1.36063,-1.01683 2.30386,-1.08877c0.79218,-0.06042 1.45041,0.21305 2.10524,0.82497c0.65482,0.61193 1.52552,1.7335 1.97207,2.9852c0.53929,1.51165 0.32593,2.38498 0.59049,3.91109c0.37012,2.13513 0.47085,4.14982 0.90863,6.27212c0.68957,3.34301 1.93144,7.73412 1.93144,7.73412c0,0 0.75217,2.04904 0.96827,3.38465c0.34715,2.14559 0.1567,4.19946 0.47502,5.53548c0.14166,0.59461 1.41209,2.9996 1.41209,2.9996l-3.07224,5.01956z" data-paper-data="{&quot;origPos&quot;:null}" fill="#a67c52" stroke="none"/><path d="M245.91209,201.18259c-0.4097,0.07209 -2.52499,0.35259 -4.55693,-0.68948c-1.54691,-0.79333 -1.31878,-1.46325 -1.05469,-1.74023c0.09287,-0.32939 1.99883,-0.22332 3.21325,-0.41854c1.24369,-0.19993 1.79841,-0.54998 3.03186,-0.80561c1.11491,-0.23106 3.22974,0.59194 4.77938,0.29798c2.58931,-0.49116 2.46963,-1.67545 3.85501,-2.11198c0.77469,-0.2441 2.18115,0.12461 3.58375,0.03615c1.4026,-0.08846 2.38013,-0.11718 2.88249,-0.44396c1.4663,-0.95383 2.03736,-2.11971 2.3605,-2.12759c0.4955,-0.01208 0.62568,0.59609 0.62568,0.59609c0,0 0.54495,1.35344 -1.15233,2.67883c-1.85709,1.45019 -5.03769,1.3795 -5.80072,1.86116c-0.60381,0.25385 -1.23097,1.27903 -1.23097,1.27903c0,0 -0.87668,1.40325 -3.11167,1.40607c-2.1618,0.00274 -3.44264,-1.32943 -4.45129,-1.23505c-0.86193,0.08065 -2.34725,1.30695 -2.97331,1.41711z" data-paper-data="{&quot;origPos&quot;:null}" fill="#d3f3fe" stroke="none"/><path d="M239.7978,183.84648c0.29124,1.4978 0.6709,3.91332 0.6709,3.91332c0,0 -0.7129,-2.6279 -0.93734,-3.78216c-0.22445,-1.15427 -0.34394,-2.96338 -0.34394,-2.96338c0,0 0.38688,1.68279 0.61038,2.83223z" data-paper-data="{&quot;origPos&quot;:null}" fill="#caf2fe" stroke="none"/><path d="M240.77018,177.2458c0,0 0.61298,3.64239 0.83648,4.79183c0.29124,1.4978 0.55785,5.6468 0.55785,5.6468c0,0 -0.56216,-3.83381 -0.7866,-4.98808c-0.22445,-1.15427 -0.60773,-5.45056 -0.60773,-5.45056z" data-paper-data="{&quot;origPos&quot;:null}" fill="#caf2fe" stroke="none"/><path d="M243.52116,176.56748c0,0 1.17826,5.03671 1.40176,6.18615c0.29124,1.4978 0.97237,6.24976 0.97237,6.24976c0,0 -1.12743,-5.45424 -1.35188,-6.60851c-0.22445,-1.15427 -1.02226,-5.8274 -1.02226,-5.8274z" data-paper-data="{&quot;origPos&quot;:null}" fill="#caf2fe" stroke="none"/><path d="M245.93297,176.49211c0,0 0.49992,3.22786 0.72343,4.37729c0.29124,1.4978 0.29405,3.46111 0.29405,3.46111c0,0 -0.29837,-1.94958 -0.52281,-3.10385c-0.22445,-1.15427 -0.49468,-4.73455 -0.49468,-4.73455z" data-paper-data="{&quot;origPos&quot;:null}" fill="#caf2fe" stroke="none"/><path d="M247.85487,176.22831c0,0 1.02753,4.99904 1.25103,6.14847c0.29124,1.4978 0.82164,5.42069 0.82164,5.42069c0,0 -0.9767,-4.05991 -1.20113,-5.21418c-0.22444,-1.15427 -0.87152,-6.35499 -0.87152,-6.35499z" data-paper-data="{&quot;origPos&quot;:null}" fill="#caf2fe" stroke="none"/><path d="M250.9827,178.03717c0,0 0.49992,3.22785 0.72343,4.37729c0.29124,1.4978 0.63322,5.11923 0.63322,5.11923c0,0 -0.5873,-3.6077 -0.81173,-4.76197c-0.22445,-1.15427 -0.54492,-4.73454 -0.54492,-4.73454z" data-paper-data="{&quot;origPos&quot;:null}" fill="#caf2fe" stroke="none"/><path d="M253.13072,178.11255c0,0 0.61298,3.1148 0.83649,4.26424c0.29124,1.4978 0.63321,4.17711 0.63321,4.17711c0,0 -0.65009,-2.61534 -0.87453,-3.76961c-0.22445,-1.15427 -0.59517,-4.67174 -0.59517,-4.67174z" data-paper-data="{&quot;origPos&quot;:null}" fill="#caf2fe" stroke="none"/><path d="M255.73096,178.03718c0,0 0.5439,3.18389 0.7674,4.33333c0.29124,1.4978 0.32546,3.84423 0.32546,3.84423c0,0 -0.48679,-2.6279 -0.71123,-3.78216c-0.22444,-1.15427 -0.38162,-4.3954 -0.38162,-4.3954z" data-paper-data="{&quot;origPos&quot;:null}" fill="#caf2fe" stroke="none"/><path d="M257.93666,180.53024c0.29124,1.4978 0.54528,4.13942 0.54528,4.13942c0,0 -0.63753,-2.854 -0.86197,-4.00827c-0.22444,-1.15427 -0.38162,-4.3954 -0.38162,-4.3954c0,0 0.47481,3.1148 0.69831,4.26424z" data-paper-data="{&quot;origPos&quot;:null}" fill="#caf2fe" stroke="none"/><path d="M240.45012,194.77979c0,0 -0.48398,-0.62965 -0.5815,-1.15204c-0.12897,-0.69092 -0.10248,-1.99839 -0.10248,-1.99839c0,0 1.91612,0.43526 3.36806,0.43526c2.50574,0 4.07875,-0.99061 6.23352,-1.29102c0.71825,-0.10013 1.98455,0.31687 1.98455,0.31687c0,0 1.60631,0.29928 2.55483,0.14592c1.39774,-0.22599 3.45715,-1.26304 3.45715,-1.26304c0,0 0.94584,-0.61427 1.61755,-0.9809c0.92767,-0.50634 1.51642,-0.65777 2.4526,-1.14821c0.94921,-0.49726 1.25644,-0.97121 2.20928,-1.22301c0.40837,-0.10791 0.78431,-0.13974 0.95465,0.07595c0.18975,0.24025 0.26113,0.63227 0.0924,0.98868c-0.16872,0.3564 -0.45962,0.72275 -1.04304,1.01939c-0.76684,0.3899 -1.86383,0.41963 -2.24919,0.85111c-0.5636,0.63106 -0.25568,1.35297 -0.84848,1.92233c-0.5928,0.56936 -1.78231,1.61899 -3.27644,2.03945c-1.8338,0.51604 -3.97428,0.32732 -3.97428,0.32732c0,0 -1.91287,-1.03122 -2.49943,-0.96285c-0.73442,0.0856 -2.19128,1.40317 -2.80531,1.71065c-0.55688,0.27886 -1.14203,0.73736 -2.76841,0.80552c-1.75877,0.07371 -4.77605,-0.61898 -4.77605,-0.61898z" data-paper-data="{&quot;origPos&quot;:null}" fill="#d3f3fe" stroke="none"/><g data-paper-data="{&quot;origPos&quot;:null}" stroke="none"><path d="M219.65354,161.99207c0,0 -0.13004,-3.29394 0.97958,-4.66911c0.46284,-0.5736 1.34117,-0.56448 1.34117,-0.56448c0,0 0.75272,-1.90542 1.60726,-2.51612c0.89906,-0.64253 2.88611,-0.69513 2.88611,-0.69513c0,0 1.46694,-1.34606 2.55497,-1.56148c1.01664,-0.20129 2.83798,0.49374 2.83798,0.49374c0,0 2.27107,-0.15838 3.17794,0.43609c1.05039,0.68854 1.8373,2.85144 1.8373,2.85144c0,0 2.00478,1.30733 2.21934,2.39261c0.23184,1.17272 -1.07549,3.39321 -1.07549,3.39321c0,0 0.74077,2.19197 0.46936,3.22218c-0.21463,0.81466 -1.71475,1.50508 -1.71475,1.50508c0,0 -0.24683,2.0099 -0.95154,2.82417c-0.60147,0.69498 -2.39538,1.04309 -2.39538,1.04309c0,0 -1.11043,0.54226 -1.84601,0.61597c-0.56379,0.0565 -1.48346,-0.28233 -1.48346,-0.28233l-2.48803,-0.26699c0,0 -0.61419,0.34518 -1.00732,0.2679c-0.34856,-0.06852 -0.89312,-0.64149 -0.89312,-0.64149c0,0 -2.10972,0.38278 -2.98788,-0.08047c-0.77325,-0.40792 -1.24364,-2.15178 -1.24364,-2.15178c0,0 -1.73364,-2.07956 -2.0853,-3.16207c-0.36034,-1.10924 0.2609,-2.45402 0.2609,-2.45402z" data-paper-data="{&quot;origPos&quot;:null}" fill="#44d86a"/><path d="M227.96589,178.88867v-9.90086l-0.62493,-0.25518l-1.10774,-0.06665l-1.30823,0.61982l0.26866,-0.68238l-1.43142,-1.11165l2.14219,0.79193l0.65382,-0.01242l0.30141,-0.00572l0.03518,-0.69237l-1.54817,-1.56798l-1.93062,-1.52193l1.36363,0.35442l-0.00559,-1.17831l1.04096,1.23069l1.14721,1.35628l0.11133,-2.19128l-1.05342,-1.51568l1.09455,0.65109l0.09463,-1.80747c0,0 0.05999,0.58893 0.09839,0.96588c0.11521,1.13084 0.60075,5.89674 0.60075,5.89674l0.86303,-0.01639l0.46257,-4.17082l0.06961,1.69711l0.50276,-0.11864l0.49856,-0.53417l0.64854,-0.79137l-0.43589,0.91146l-0.59183,1.06086l-0.57523,0.61527l0.04343,1.05917l1.16419,-0.50705l1.06041,-1.69102l0.3872,-0.47644l0.03769,-1.39275l-0.93753,-1.39603l0.96905,0.23119l-0.04976,-2.17028l0.44787,0.97022l0.26459,2.85702l0.65276,-0.80322l1.14478,-2.60371l-0.33468,2.68461l-0.72416,1.17333l-1.37598,1.94535l0.79622,-0.34679l2.64045,-2.27871l-1.53662,1.58969l1.91795,0.10215l-2.77705,0.78663l-0.58326,0.60339l0.9018,0.42155l-2.03444,0.50312l-1.01352,0.82742v9.90086z" data-paper-data="{&quot;origPos&quot;:null}" fill="#5f3506"/></g><path d="M235.18283,199.14283l-6.34754,-22.35451c0,0 3.61177,-1.06937 4.60976,-0.74694c0.75459,0.24379 1.51901,1.79918 1.51901,1.79918c0,0 1.17775,5.18365 1.96104,8.23612c0.69965,2.72652 1.83883,6.57184 1.83883,6.57184c0,0 2.45459,3.00761 1.4554,4.82202c-0.90411,1.64176 -5.03649,1.67228 -5.03649,1.67228z" data-paper-data="{&quot;origPos&quot;:null}" fill="#a67c52" stroke="none"/><path d="M205.95757,182.6309c0,0 0.4459,-1.73694 0.95246,-2.78549c0.59019,-1.22165 1.85782,-3.03161 1.85782,-3.03161c0,0 0.469,-1.15827 0.56069,-1.94164c0.09169,-0.78336 0.15803,-3.91219 0.41761,-6.41619c0.10244,-0.98818 0.17745,-1.5797 0.51001,-2.53211c0.33256,-0.95241 3.57587,-9.16909 3.57587,-9.16909c0,0 1.94636,-0.27698 2.76026,0.70233c1.77126,2.13126 1.25906,3.30109 1.85344,5.53967c0.59438,2.23858 1.05031,4.47146 1.56459,7.33342c0.75005,4.17401 0.977,6.52838 1.6751,10.69538c0.69809,4.167 0.57986,3.53686 0.9826,5.16873c0.61969,2.51094 1.73596,5.24928 1.73596,5.24928l2.46191,4.80254l-7.26687,-2.25613c0,0 -3.05733,-0.19528 -5.01417,-0.57303c-2.58253,-0.49852 -4.15019,-0.66626 -6.6174,-1.6723c-2.46721,-1.00605 -3.36813,-0.24405 -4.24162,-2.75562c-0.66957,-1.92521 1.67642,-4.51473 1.67642,-4.51473z" data-paper-data="{&quot;origPos&quot;:null}" fill="#8c6238" stroke="#000000"/><path d="M225.13046,198.47498c-0.57539,-0.25429 -1.30701,-0.95419 -1.46552,-1.62389c-0.25457,-1.07555 0.00717,-3.33122 0.12004,-3.90183c0.11854,-0.59927 2.75836,-3.9376 3.28569,-7.34228c0.33929,-2.19061 -0.18375,-5.25996 -0.00574,-6.44223c0.09952,-0.66102 0.69606,-2.48499 2.60907,-2.53408c1.44223,-0.037 1.82657,1.48905 2.37681,2.94861c0.55023,1.45955 1.08196,5.30024 1.72476,7.9312c0.8392,3.43481 1.64926,3.98199 2.37033,7.44353c0.36112,1.7336 0.1884,4.02761 0.1884,4.02761c0,0 -3.61321,0.58717 -5.92585,0.49132c-2.02385,-0.08389 -3.35732,-0.14915 -5.27799,-0.99796z" data-paper-data="{&quot;origPos&quot;:null}" fill="#764c24" stroke="none"/></g></g></svg>